<?xml version="1.0" encoding="utf-8"?>
<!-- Generator: Adobe Illustrator 23.0.2, SVG Export Plug-In . SVG Version: 6.00 Build 0)  -->
<svg version="1.1" id="Capa_1" xmlns="http://www.w3.org/2000/svg" xmlns:xlink="http://www.w3.org/1999/xlink" x="0px" y="0px"
	 viewBox="0 0 1190.55 841.89" style="enable-background:new 0 0 1190.55 841.89;" xml:space="preserve">
<style type="text/css">
	.st0{stroke:#FFFFFF;stroke-miterlimit:10;}
</style>
<circle class="st0" cx="1088.23" cy="748.34" r="369"/>
<circle class="st0" cx="72.11" cy="51.94" r="369"/>
<path class="st0" d="M139.15,602.43c194.04-67.4,228.77-81.7,281.87-108.26c53.11-26.55,55.15-24.51,69.45-53.11
	c14.3-28.6-259.4-18.38,42.89-106.21s332.94-175.66,384-63.32s245.11-12.26-10.21,177.7S606.89,612.64,535.4,647.36
	s-24.51,0-110.3,46.98c-85.79,46.98,8.17,49.02-132.77,83.74C151.4,812.81,809.11,208.21,784.6,173.49
	c-24.51-34.72-40.85-163.4-151.15-183.83S406.72-73.66,406.72-73.66s87.83-132.79,304.34,125.6s285.96,317.63,179.74,354.4
	s-196.09,36.77-228.77,49.02c-32.68,12.26-2.04,110.3-55.15-16.34s-71.49-165.45-63.32-165.45s-10.21-57.19,145.02-20.43
	s177.7,12.26,157.28,71.49c-20.43,59.23,108.26,51.06-24.51,145.02S719.23,610.6,682.47,665.74
	c-36.77,55.15,65.99,124.82-73.53,65.36s-359.49,40.85-116.43-173.62c72.58-64.04,126.22-109.14,166.96-142.21
	c95.68-77.67,120.16-88.94,151.68-123.32c44.94-49.02-16.34-51.06,81.7-93.96s68.04-120.51,195.38-89.87s209.04-49.02,147.77,91.91
	S1373.49,314.43,1088.23,390s-415.98,30.64-503.81-36.77s-343.15-610.72-343.15-604.6"/>
</svg>
